<?xml version="1.0" encoding="UTF-8"?>
<!DOCTYPE svg PUBLIC "-//W3C//DTD SVG 1.1//EN" "http://www.w3.org/Graphics/SVG/1.1/DTD/svg11.dtd">
<!-- Creator: CorelDRAW 2018 (64-Bit) -->
<svg xmlns="http://www.w3.org/2000/svg" xml:space="preserve" width="2472px" height="2472px" version="1.1" style="shape-rendering:geometricPrecision; text-rendering:geometricPrecision; image-rendering:optimizeQuality; fill-rule:evenodd; clip-rule:evenodd"
viewBox="0 0 2472 2472"
 xmlns:xlink="http://www.w3.org/1999/xlink">
 <defs>
  <style type="text/css">
   <![CDATA[
    .fil0 {fill:#F4F5F5}
    .fil4 {fill:#1565C0;fill-opacity:0.960784}
    .fil2 {fill:#1565C0;fill-opacity:0.964706}
    .fil3 {fill:#1565C0;fill-opacity:0.968627}
    .fil1 {fill:#1565C0;fill-opacity:0.976471}
   ]]>
  </style>
 </defs>
 <g id="Слой_x0020_1">
  <metadata id="CorelCorpID_0Corel-Layer"/>
  <circle class="fil0" cx="1236" cy="1236" r="1236"/>
 </g>
 <g id="Слой_x0020_1_0">
  <metadata id="CorelCorpID_1Corel-Layer"/>
  <g id="_2710043.svg">
   <g>
    <path class="fil1" d="M776.57 620.05c23.55,-0.54 47.08,0 70.59,1.6 48.96,20.4 65.54,56.23 49.74,107.49 -10.64,21.34 -27.22,35.78 -49.74,43.32 -134.75,4.82 -210.7,73.81 -227.83,206.97 8.73,107.66 65.42,174.5 170.07,200.55 57.68,3.79 115.44,5.93 173.28,6.42 34.22,13.32 52.41,38.46 54.55,75.4 -8.38,50.63 -21.75,99.84 -40.11,147.61 -10.64,13.86 -24.01,24.02 -40.11,30.48 -74.88,2.14 -149.75,2.14 -224.62,0 -23.33,-9.71 -39.91,-26.29 -49.74,-49.73 -9.09,-34.25 -18.18,-68.48 -27.27,-102.69 -137.78,-94.9 -191.79,-225.39 -162.04,-391.47 44.15,-154.91 145.22,-246.89 303.23,-275.95zm38.5 670.63c30,-0.43 38.56,12.94 25.67,40.11 -27.41,10.66 -39.71,1.57 -36.9,-27.27 2.21,-5.94 5.96,-10.22 11.23,-12.84z"/>
   </g>
   <g>
    <path class="fil1" d="M1623.69 620.05c149.19,-4.85 262.03,56.12 338.52,182.9 45.16,86.73 55.85,177.65 32.09,272.74 -27.81,90.97 -81.29,162.63 -160.44,214.99 -8.3,40.71 -20.06,80.29 -35.29,118.73 -10.48,13.65 -23.85,23.81 -40.11,30.48 -74.87,2.14 -149.75,2.14 -224.62,0 -23,-10.16 -39.57,-26.74 -49.74,-49.73 -10.12,-37.3 -19.75,-74.74 -28.87,-112.31 -5.93,-44.32 11.72,-74.8 52.94,-91.45 57.83,-0.55 115.59,-2.69 173.28,-6.42 104.6,-26 161.29,-92.86 170.06,-200.55 -7.93,-99.91 -59.27,-165.69 -154.02,-197.34 -27.86,-4.28 -55.67,-8.56 -83.43,-12.84 -41.71,-23.47 -55.08,-58.24 -40.11,-104.28 11.21,-21.39 27.79,-36.36 49.74,-44.92zm12.83 670.63c30,-0.43 38.56,12.94 25.67,40.11 -27.41,10.66 -39.71,1.57 -36.9,-27.27 2.22,-5.94 5.96,-10.22 11.23,-12.84z"/>
   </g>
   <g>
    <path class="fil2" d="M937.01 636.09c156.51,59.8 239.94,173.71 250.28,341.74 -2.13,107.69 -42.77,197 -121.93,267.93 -14.24,-58.62 -50.6,-95.52 -109.1,-110.7 76.03,-73.7 91.54,-158.73 46.53,-255.1 -23.32,-38.3 -54.88,-67.71 -94.66,-88.24 44.19,-45.16 53.82,-97.04 28.88,-155.63z"/>
   </g>
   <g>
    <path class="fil3" d="M1530.63 636.09c1.92,0.75 2.99,2.36 3.21,4.81 -24.73,57.06 -15.11,107.33 28.88,150.82 -108.91,63.33 -142.61,154.79 -101.08,274.35 13.96,25.74 31.61,48.73 52.95,68.99 -58.41,15.09 -94.78,52 -109.1,110.7 -78.67,-70.75 -118.25,-159.52 -118.73,-266.33 6.59,-168.01 87.88,-282.46 243.87,-343.34z"/>
   </g>
   <g>
    <path class="fil4" d="M747.69 1492.84c51.34,0 102.68,0 154.02,0 -0.62,31.63 -16.66,48.75 -48.13,51.34 0,16.04 0,32.09 0,48.13 12.71,-1.32 24.48,1.35 35.29,8.02 32.84,30.69 63.33,63.31 91.45,97.87 1.61,12.79 2.14,25.63 1.61,38.51 7.58,0.55 15.06,1.62 22.46,3.2 2.89,-19.47 13.58,-32.84 32.09,-40.11 47.06,-2.14 94.12,-2.14 141.19,0 22.42,9.03 33.12,25.61 32.08,49.74 17.12,0 34.23,0 51.34,0 -1.03,-24.13 9.66,-40.71 32.09,-49.74 47.07,-2.14 94.12,-2.14 141.19,0 18.51,7.27 29.2,20.64 32.09,40.11 7.4,-1.58 14.88,-2.65 22.46,-3.2 -1.9,-17.99 0.77,-35.11 8.02,-51.34 30.69,-32.84 63.31,-63.33 97.87,-91.45 8.49,-1.6 17.05,-2.14 25.67,-1.61 0,-16.04 0,-32.09 0,-48.13 -33.16,-1.07 -50.27,-18.19 -51.34,-51.34 51.34,0 102.68,0 154.02,0 -1.07,33.15 -18.18,50.27 -51.34,51.34 -0.53,27.83 0,55.64 1.6,83.43 28.14,22.76 34.55,50.57 19.26,83.43 -30.69,32.83 -63.32,63.32 -97.87,91.45 -11.77,2.14 -23.53,2.14 -35.3,0 -12.52,-4.93 -23.75,-11.88 -33.69,-20.86 -18.47,5.55 -37.19,9.83 -56.15,12.83 -0.04,26.32 -11.81,45.03 -35.3,56.16 -47.07,2.14 -94.12,2.14 -141.19,0 -22.43,-9.03 -33.12,-25.61 -32.09,-49.74 -17.11,0 -34.22,0 -51.34,0 1.04,24.13 -9.66,40.71 -32.08,49.74 -47.07,2.14 -94.13,2.14 -141.19,0 -23.5,-11.13 -35.26,-29.84 -35.3,-56.16 -18.96,-3 -37.68,-7.28 -56.15,-12.83 -23.87,23.57 -51.14,28.38 -81.83,14.44 -32.84,-30.69 -63.32,-63.31 -91.45,-97.87 -6.67,-29.2 1.89,-52.73 25.67,-70.59 1.61,-27.79 2.14,-55.6 1.61,-83.43 -33.16,-1.07 -50.28,-18.19 -51.34,-51.34zm109.1 154.02c23.95,22.34 47.48,45.34 70.59,68.99 -11.23,11.23 -22.46,22.46 -33.69,33.69 -23,-23 -46,-45.99 -68.99,-68.99 11.35,-10.81 22.05,-22.04 32.09,-33.69zm754.06 0c12.19,10.58 23.95,21.81 35.3,33.69 -23,23 -45.99,45.99 -68.99,68.99 -11.23,-11.23 -22.46,-22.46 -33.69,-33.69 23.11,-22.57 45.57,-45.57 67.38,-68.99zm-555.12 102.68c33.16,0 66.32,0 99.47,0 0,17.11 0,34.23 0,51.34 -33.15,0 -66.31,0 -99.47,0 0,-17.11 0,-34.23 0,-51.34zm256.7 0c34.23,0 68.46,0 102.69,0 0,17.11 0,34.23 0,51.34 -34.23,0 -68.46,0 -102.69,0 0,-17.11 0,-34.23 0,-51.34z"/>
   </g>
  </g>
 </g>
</svg>
